Coordinates
version=1
nRows=15
nColumns=34
inDegrees=yes

Units are S.I. units (second, meters, Newtons, ...)
Angles are in degrees.

endheader
time	pelvis_tilt	pelvis_list	pelvis_rotation	pelvis_tx	pelvis_ty	pelvis_tz	hip_flexion_r	hip_adduction_r	hip_rotation_r	knee_angle_r	ankle_angle_r	subtalar_angle_r	mtp_angle_r	hip_flexion_l	hip_adduction_l	hip_rotation_l	knee_angle_l	socket_flexion	socket_adduction	socket_rotation	socket_tx	socket_ty	socket_tz	pros_ankle_rx	pros_ankle_ry	pros_ankle_rz	pros_ankle_tx	pros_ankle_ty	pros_ankle_tz	foot_flex	lumbar_extension	lumbar_bending	lumbar_rotation
      0.30000000	      1.21674965	     -3.00882417	     -3.33682014	     -0.33683040	      1.04921265	      0.31708398	      8.59697355	     -3.31368152	     -8.40480472	    -59.60120193	      3.83743420	     17.68921255	     20.62456998	     11.12534600	     -0.49798123	     -2.40824733	    -22.08496490	      0.00000000	      0.00000000	      0.00000000	      0.00000000	     -0.00118873	      0.00000000	      0.00000000	      0.00000000	      0.00000000	      0.00000000	      0.00000000	      0.00000000	      5.04810532	    -20.40133954	     -5.31946978	     -1.76768391
      0.30416667	      1.19877904	     -3.04693352	     -3.27692106	     -0.33151115	      1.04993013	      0.31689101	      9.14447835	     -3.28601490	     -8.51442748	    -59.30314202	      4.07510479	     17.61601737	     20.62168771	     10.70149073	     -0.49522793	     -2.35386893	    -21.86752106	      0.00000000	      0.00000000	      0.00000000	      0.00000000	     -0.00098681	      0.00000000	      0.00000000	      0.00000000	      0.00000000	      0.00000000	      0.00000000	      0.00000000	      5.21947157	    -20.48203890	     -5.27692312	     -1.78832176
      0.30833333	      1.28905106	     -3.18277861	     -3.16174282	     -0.32611159	      1.05070442	      0.31665925	      9.52927543	     -3.10500051	     -8.62091373	    -58.99923263	      5.25464210	     17.29283717	     20.62813457	     10.10888633	     -0.58576280	     -2.23182925	    -21.56369131	      0.00000000	      0.00000000	      0.00000000	      0.00000000	     -0.00117413	      0.00000000	      0.00000000	      0.00000000	      0.00000000	      0.00000000	      0.00000000	      0.00000000	      5.26437842	    -20.38216726	     -4.98693646	     -1.89261114
      0.31250000	      1.27162238	     -3.21341242	     -3.11736332	     -0.32096805	      1.05141468	      0.31651362	     10.07595932	     -3.07351203	     -8.72099192	    -58.62891231	      5.47200452	     17.23017901	     20.62029085	      9.71956007	     -0.58357819	     -2.18945544	    -21.38983618	      0.00000000	      0.00000000	      0.00000000	      0.00000000	     -0.00087192	      0.00000000	      0.00000000	      0.00000000	      0.00000000	      0.00000000	      0.00000000	      0.00000000	      5.43020782	    -20.49075525	     -4.94815919	     -1.91274172
      0.31666667	      1.35753830	     -3.41458364	     -2.99972973	     -0.31565621	      1.05213327	      0.31628221	     10.43440465	     -2.78657841	     -8.79439070	    -58.23397185	      6.65097115	     16.90092460	     20.56848183	      9.15521412	     -0.75052800	     -2.07100228	    -21.12103232	      0.00000000	      0.00000000	      0.00000000	      0.00000000	     -0.00110303	      0.00000000	      0.00000000	      0.00000000	      0.00000000	      0.00000000	      0.00000000	      0.00000000	      5.50009181	    -20.47034083	     -4.59175369	     -2.03579645
      0.32083333	      1.34455569	     -3.43810819	     -2.95017614	     -0.31057155	      1.05276863	      0.31616003	     10.97184913	     -2.75097026	     -8.88973857	    -57.81650108	      6.83950880	     16.84552081	     20.54972224	      8.77415902	     -0.74593300	     -2.04414718	    -20.96344035	      0.00000000	      0.00000000	      0.00000000	      0.00000000	     -0.00081016	      0.00000000	      0.00000000	      0.00000000	      0.00000000	      0.00000000	      0.00000000	      0.00000000	      5.64715015	    -20.57072530	     -4.54893716	     -2.05317922
      0.32500000	      1.41894248	     -3.64956491	     -2.85643615	     -0.30525382	      1.05345776	      0.31597320	     11.31688821	     -2.45414349	     -8.97158124	    -57.31081359	      7.77916440	     16.59649587	     20.46558947	      8.21656026	     -0.93306592	     -1.94637259	    -20.68751853	      0.00000000	      0.00000000	      0.00000000	      0.00000000	     -0.00103379	      0.00000000	      0.00000000	      0.00000000	      0.00000000	      0.00000000	      0.00000000	      0.00000000	      5.71596392	    -20.52151638	     -4.21439755	     -2.14666909
      0.32916667	      1.39900061	     -3.66713627	     -2.81680528	     -0.30022356	      1.05400900	      0.31587978	     11.84198340	     -2.41762995	     -9.06078053	    -56.83619564	      7.95350140	     16.54972779	     20.43947789	      7.85993947	     -0.92443735	     -1.92748980	    -20.55440625	      0.00000000	      0.00000000	      0.00000000	      0.00000000	     -0.00071912	      0.00000000	      0.00000000	      0.00000000	      0.00000000	      0.00000000	      0.00000000	      0.00000000	      5.85811122	    -20.63845231	     -4.16541289	     -2.16057079
      0.33333333	      1.47376341	     -3.92474594	     -2.71554007	     -0.29498559	      1.05467112	      0.31570834	     12.16080543	     -2.04668403	     -9.12625778	    -56.22600464	      8.80193826	     16.33662892	     20.29722594	      7.32132118	     -1.17018901	     -1.83154730	    -20.31573142	      0.00000000	      0.00000000	      0.00000000	      0.00000000	     -0.00097721	      0.00000000	      0.00000000	      0.00000000	      0.00000000	      0.00000000	      0.00000000	      0.00000000	      5.93764936	    -20.61880809	     -3.79006871	     -2.25004592
      0.33750000	      1.45805280	     -3.93232109	     -2.68539877	     -0.29001797	      1.05516204	      0.31563435	     12.67913386	     -2.01737236	     -9.21375134	    -55.70822335	      8.94885130	     16.29798626	     20.26283004	      6.97691047	     -1.15419788	     -1.81910024	    -20.19939161	      0.00000000	      0.00000000	      0.00000000	      0.00000000	     -0.00064991	      0.00000000	      0.00000000	      0.00000000	      0.00000000	      0.00000000	      0.00000000	      0.00000000	      6.07187253	    -20.73876262	     -3.74138237	     -2.26076788
      0.34166667	      1.42801200	     -3.97412592	     -2.62965538	     -0.28487538	      1.05560327	      0.31557049	     13.15900991	     -1.92655926	     -9.30055867	    -55.11453085	      9.19742576	     16.24792813	     20.22467309	      6.60610149	     -1.17692807	     -1.80131669	    -20.02251977	      0.00000000	      0.00000000	      0.00000000	      0.00000000	     -0.00047327	      0.00000000	      0.00000000	      0.00000000	      0.00000000	      0.00000000	      0.00000000	      0.00000000	      6.20947239	    -20.82421620	     -3.67001597	     -2.28254482
      0.34583333	      1.41249426	     -4.04809604	     -2.56901347	     -0.27971450	      1.05605429	      0.31553129	     13.59416177	     -1.78295552	     -9.37862633	    -54.46418253	      9.52508927	     16.19015621	     20.17890148	      6.21405236	     -1.23784789	     -1.77261132	    -19.83740275	      0.00000000	      0.00000000	      0.00000000	      0.00000000	     -0.00034636	      0.00000000	      0.00000000	      0.00000000	      0.00000000	      0.00000000	      0.00000000	      0.00000000	      6.33525023	    -20.87454012	     -3.56225085	     -2.31474862
      0.35000000	      1.77571709	     -4.57408856	     -2.41651797	     -0.27488306	      1.05711148	      0.31532762	     13.50384177	     -1.01321156	     -9.37000343	    -53.63480928	     10.66224203	     15.85941285	     16.09655283	      5.41082157	     -1.77866669	     -1.63128466	    -19.65672357	      0.00000000	      0.00000000	      0.00000000	      0.00000000	     -0.00083632	      0.00000000	      0.00000000	      0.00000000	      0.00000000	      0.00000000	      0.00000000	      0.00000000	      6.40413118	    -21.22899469	     -2.77480847	     -2.43778391
      0.35416667	      1.73705998	     -4.56669531	     -2.37426255	     -0.26987515	      1.05743650	      0.31533214	     13.99660570	     -0.97189505	     -9.44534063	    -53.00170354	     10.82301715	     15.84171025	     16.09316102	      5.08399608	     -1.75440639	     -1.62797489	    -19.52314302	      0.00000000	      0.00000000	      0.00000000	      0.00000000	     -0.00056388	      0.00000000	      0.00000000	      0.00000000	      0.00000000	      0.00000000	      0.00000000	      0.00000000	      6.53458131	    -21.30976631	     -2.76203355	     -2.45266520
      0.35833333	      1.71079209	     -4.57726324	     -2.34007346	     -0.26486288	      1.05771889	      0.31534694	     14.46362792	     -0.90538125	     -9.51629913	    -52.33738748	     11.00939127	     15.82453758	     16.08806412	      4.74673081	     -1.75155009	     -1.61285602	    -19.40171371	      0.00000000	      0.00000000	      0.00000000	      0.00000000	     -0.00032653	      0.00000000	      0.00000000	      0.00000000	      0.00000000	      0.00000000	      0.00000000	      0.00000000	      6.65881879	    -21.37090734	     -2.73471185	     -2.47280126
